<?xml version="1.0" encoding="utf-8"?>
<!-- Svg Vector Icons : http://www.onlinewebfonts.com/icon -->
<!DOCTYPE svg PUBLIC "-//W3C//DTD SVG 1.1//EN" "http://www.w3.org/Graphics/SVG/1.1/DTD/svg11.dtd">
<svg version="1.1" xmlns="http://www.w3.org/2000/svg" xmlns:xlink="http://www.w3.org/1999/xlink" x="0px" y="0px" viewBox="0 0 256 256" enable-background="new 0 0 256 256" xml:space="preserve">
<metadata> Svg Vector Icons : http://www.onlinewebfonts.com/icon </metadata>
<g><g><path fill="#000000" d="M196.3,189.5c0,3.1-2.5,6.2-6.2,6.2c-3.1,0-6.2-2.5-6.2-6.2v-0.6v-0.6c-3.7-27.3-27.3-47.2-55.3-47.2H128h-0.6c-28,0-50.9,19.9-55.3,46.6c0,0.6,0,1.3,0,1.9v0.6c0,3.7-3.1,6.2-6.2,6.2s-6.2-3.1-6.2-6.2l0,0l0,0v-0.6c0-0.6,0-1.3,0-1.3c3.1-24.8,19.9-45.3,42.8-54c-13.1-8.7-21.7-23.6-21.7-40.4C80.8,67.1,101.3,46,128,46c26.7,0,47.2,21.7,47.2,47.8c0,17.4-8.7,32.3-21.7,40.4c22.3,8.7,39.1,28.6,42.8,53.4C196.3,187.6,196.3,188.3,196.3,189.5L196.3,189.5z M164,93.2c0-19.9-16.2-36-36-36c-19.9,0-36,16.2-36,36c0,19.9,16.2,36,36,36C147.9,129.3,164,113.1,164,93.2z"/><path fill="#000000" d="M128,246c-65.2,0-118-52.8-118-118S62.8,10,128,10s118,52.8,118,118S193.2,246,128,246z M128,20.5C69,20.5,20.5,68.4,20.5,128c0,59.6,47.8,107.5,107.5,107.5c59.6,0,107.5-47.8,107.5-107.5C235.5,68.4,187,20.5,128,20.5z"/></g></g>
</svg>